@startuml SpotifyDatabaseDesign
entity Artist {
  * id : VARCHAR
  --
  * name : VARCHAR
  instagram : VARCHAR
  twitter : VARCHAR
  facebook : VARCHAR
  wikipedia : VARCHAR
  bio : TEXT
}

entity Album {
  * id : VARCHAR 
  --
  * title : VARCHAR
  * release : YEAR
  * image : VARCHAR
}

entity Song {
  * id VARCHAR 
  --
  * album_id : VARCHAR
  * title : VARCHAR
  * duration : INT
}

entity PlaylistCategory {
  * id : VARCHAR
  --
  * name : VARCHAR 
  * image : VARCHAR
  * icon : VARCHAR
}

entity Playlist {
  * id :  VARCHAR
  --
  * name : VARCHAR
  image : VARCHAR
  description : VARCHAR
  category_id : VARCHAR
  * user_id : VARCHAR
}

entity PodcastCategory {
  * id : VARCHAR
  --
  * name : VARCHAR 
  * image : VARCHAR
  * icon : VARCHAR
}

entity Podcast {
  * id :  VARCHAR
  --
  * name : VARCHAR
  image : VARCHAR
  about : VARCHAR
  category_id : VARCHAR
  * user_id : VARCHAR
}

entity Episode {
  * id : VARCHAR
  --
  * podcast_id : VARCHAR
  * title : VARCHAR 
  description : VARCHAR
  published_at : DATE
  duration : INT
}

entity User {
  * id : VARCHAR
  --
  * name : VARCHAR
  * email : VARCHAR
  birthday : DATE
}

entity Concert {
  * id : VARCHAR
  --
  * event_at : DATETIME
  * location : VARCHAR
  * url : VARCHAR
  lon : DOUBLE
  lat : DOUBLE
}


Artist }|--|{ Album : Has
Album }|--|{ Song : Contains
Artist }|--|{ Song : Sing
PlaylistCategory }o--|{ Playlist : Contains
User ||--|{ Playlist : Create
Playlist }o--o{ Song : Contains
PodcastCategory |o--|{ Podcast : Contains
User ||--o{ Podcast : Create
Podcast ||--o{ Episode : Contains
Artist }|--o{ Concert : Perform
User }o--o{ Artist : Follow
User }o--o{ Song : Liked Song
User }o--o{ Playlist : Follow
@enduml